<svg xmlns="http://www.w3.org/2000/svg" width="21.53" height="18.812" viewBox="0 0 21.53 18.812">
  <metadata><?xpacket begin="﻿" id="W5M0MpCehiHzreSzNTczkc9d"?>
<x:xmpmeta xmlns:x="adobe:ns:meta/" x:xmptk="Adobe XMP Core 5.6-c138 79.159824, 2016/09/14-01:09:01        ">
   <rdf:RDF xmlns:rdf="http://www.w3.org/1999/02/22-rdf-syntax-ns#">
      <rdf:Description rdf:about=""/>
   </rdf:RDF>
</x:xmpmeta>
                                                                                                    
                                                                                                    
                                                                                                    
                                                                                                    
                                                                                                    
                                                                                                    
                                                                                                    
                                                                                                    
                                                                                                    
                                                                                                    
                                                                                                    
                                                                                                    
                                                                                                    
                                                                                                    
                                                                                                    
                                                                                                    
                                                                                                    
                                                                                                    
                                                                                                    
                                                                                                    
                           
<?xpacket end="w"?></metadata>
<defs>
    <style>
      .cls-1 {
        fill: #fff;
        fill-rule: evenodd;
      }
    </style>
  </defs>
  <path id="корзина_иконка" data-name="корзина иконка" class="cls-1" d="M1384.31,397.012h-0.01l-3.12.683-0.37,5.155v0.8h-0.06l-0.45,6.271a0.392,0.392,0,0,1-.2.363,0.372,0.372,0,0,1-.14.052,0.475,0.475,0,0,1-.11.016h-14.97a0.439,0.439,0,0,1-.46-0.431,0.475,0.475,0,0,1,.46-0.467h14.55l0.12-1.595h-14.87l-1.55-8.758,17.22-2.314,0.02-.258v-0.008a0.462,0.462,0,0,1,.49-0.419,0.428,0.428,0,0,1,.4.48v0.008l-0.01.176,2.86-.626,0.01,0a0.467,0.467,0,0,1,.54.36A0.436,0.436,0,0,1,1384.31,397.012Zm-6.95,9.944h2.25l0.24-3.311h-2.58Zm-10.88-7.4-2.3.309,0.51,2.884h2.04Zm0.32,4.091h-1.95l0.58,3.3h1.64Zm3.92-4.662-3.35.451,0.26,3.313h3.33Zm0.3,4.662h-3.31l0.26,3.305,3.26,0Zm5.2-5.4-4.61.62,0.25,3.884h4.49Zm0.15,5.4h-4.45l0.21,3.307,4.33,0Zm0.75-5.523,0.13,4.625h2.67l0.36-5.05Zm-9.43,13.515a1.64,1.64,0,1,1-1.64,1.638A1.644,1.644,0,0,1,1367.69,411.638Zm10.93-.977a2.129,2.129,0,1,1-2.13,2.128A2.127,2.127,0,0,1,1378.62,410.661Z" transform="translate(-1363.13 -396.094)"/>
</svg>
